<?xml version="1.0" standalone="no"?>
<!DOCTYPE svg PUBLIC "-//W3C//DTD SVG 1.1//EN" "http://www.w3.org/Graphics/SVG/1.1/DTD/svg11.dtd" >
<svg xmlns="http://www.w3.org/2000/svg" xmlns:xlink="http://www.w3.org/1999/xlink" version="1.1">
<metadata></metadata>
<defs>
<font id="tokyosoftregular" horiz-adv-x="1689" >
<font-face units-per-em="2048" ascent="1638" descent="-410" />
<missing-glyph horiz-adv-x="1024" />
<glyph horiz-adv-x="0" />
<glyph unicode="&#xd;" horiz-adv-x="1024" />
<glyph unicode=" "  horiz-adv-x="1024" />
<glyph unicode="&#x09;" horiz-adv-x="1024" />
<glyph unicode="&#xa0;" horiz-adv-x="1024" />
<glyph unicode="A" horiz-adv-x="1728" d="M0 399q-4 -35 17.5 -58.5t56.5 -23.5h262q35 0 61.5 24t30.5 58l45 365q4 35 31.5 58.5t62.5 23.5h416q53 0 98 -29q82 -51 82 -136q0 -13 -2 -26q-8 -53 -88 -53h-444q-35 0 -58.5 -24.5t-23.5 -59.5t23.5 -58.5t58.5 -23.5h420q35 0 56 -24.5t17 -57.5 q-10 -80 -80.5 -131t-152.5 -51h-154q-35 0 -59.5 -24.5t-24.5 -59.5t24.5 -59.5t59.5 -24.5h273q197 0 362 152q162 145 201 342l4 20q10 51 10 88q0 176 -131 291t-309 115h-557q-55 0 -78 51t-78 51h-262q-35 0 -61.5 -24.5t-30.5 -59.5z" />
<glyph unicode="B" horiz-adv-x="1501" d="M0 80q-2 -33 22.5 -57.5t57.5 -24.5h797q199 0 340 140.5t141 338.5v119q0 199 -141 339t-340 140h-797q-76 -6 -80 -82q-2 -33 22.5 -56.5t57.5 -23.5h659q84 0 143.5 -58t59.5 -142v-6q0 -35 -22.5 -57.5t-57.5 -22.5h-782q-76 -6 -80 -82q-2 -33 22.5 -56.5 t57.5 -23.5h782q35 0 57.5 -23.5t22.5 -58.5v-23q0 -84 -59.5 -142t-143.5 -58h-659q-76 -8 -80 -80z" />
<glyph unicode="C" horiz-adv-x="1646" d="M0 80q0 33 24.5 56.5t57.5 23.5h108q35 0 57.5 23.5t22.5 58.5v354q0 199 141.5 339t340.5 140h622q78 -6 80 -82q0 -33 -23.5 -56.5t-56.5 -23.5h-485q-84 0 -143.5 -59t-59.5 -143v-469q0 -35 22.5 -58.5t57.5 -23.5h657q76 -6 80 -80q2 -33 -22.5 -57.5t-57.5 -24.5 h-1341q-80 8 -82 82z" />
<glyph unicode="D" horiz-adv-x="1718" d="M0 928v-5q0 -33 24 -55q26 -24 60 -24h66q35 0 58 -24.5t23 -59.5v-262q0 -207 145.5 -350.5t352.5 -143.5h727q23 0 39 10q41 20 43 72v5q0 33 -22 55q-24 24 -60 24h-588q-86 0 -147.5 60.5t-61.5 146.5v383q0 35 25 59.5t59 24.5h234q76 0 130 -49.5t54 -124.5 q0 -16 -2 -29l-33 -211q-6 -35 14.5 -58.5t55.5 -23.5h262q82 0 94 82l23 156q-2 182 -126 303t-308 121h-398q-55 0 -82.5 51t-82.5 51h-263q-55 0 -82.5 -51t-82.5 -51h-66q-20 0 -41 -11q-41 -20 -43 -71z" />
<glyph unicode="E" horiz-adv-x="1646" d="M0 420q0 -180 128 -298t308 -118h983q20 0 41 10q41 20 43 74v5q1 31 -23 53q-26 24 -61 24l-841 2q-78 8 -122 68q-36 48 -36 109q0 14 2 28q6 41 88 41h907q25 2 41 10q39 18 41 74q0 33 -24.5 57.5t-57.5 24.5h-885q-72 0 -72 63q0 7 1 15q2 20 8 63q12 86 82 146.5 t156 60.5h399q23 2 41 10q39 23 41 74v5q0 33 -22 55q-24 24 -60 24h-516q-199 0 -366 -148.5t-199 -345.5l-19 -108q-6 -37 -6 -78z" />
<glyph unicode="F" d="M0 821q0 43 53 43h262q84 0 121 -73l205 -414q41 -84 132 -145.5t181 -61.5h117q78 -6 82 -84v-5q-1 -31 -23 -53q-24 -24 -59 -24h-172q-215 0 -431 147.5t-314 346.5l-146 293q-8 16 -8 30zM682 969v49q0 35 24.5 58.5t59.5 23.5h696q35 0 59.5 -23.5t24.5 -58.5v-49 q0 -35 -24.5 -58.5t-59.5 -23.5h-696q-35 0 -59.5 23.5t-24.5 58.5zM684 614v48q0 35 23.5 59t58.5 24h696q35 0 59.5 -24.5t24.5 -58.5v-48q0 -35 -24.5 -59.5t-59.5 -24.5h-696q-35 0 -58.5 24.5t-23.5 59.5z" />
<glyph unicode="G" horiz-adv-x="1728" d="M0 510q0 -176 131 -291t309 -115h557q55 0 78 -50t78 -50h262q82 0 92 82l78 631q4 35 -17.5 58.5t-56.5 23.5h-262q-82 0 -92 -82l-45 -363q-4 -35 -31.5 -58.5t-62.5 -23.5h-416q-84 0 -137 58q-45 50 -45 117q0 13 2 26q10 80 37 264q12 86 81.5 147.5t155.5 61.5h154 q20 0 41 10q41 20 43 72q0 35 -24.5 59.5t-59.5 24.5h-272q-197 0 -361 -148.5t-203 -345.5l-4 -20q-10 -51 -10 -88z" />
<glyph unicode="H" horiz-adv-x="1527" d="M0 88q0 -35 24.5 -59.5t59.5 -24.5h260q35 0 59.5 24.5t24.5 59.5v485q0 84 84 84h236q86 0 147 -60t61 -146v-127q0 -33 24 -57.5t56 -24.5h269q33 0 56 23.5t23 56.5v10q0 205 -144 347t-351 144l-377 2q-35 0 -59.5 26t-24.5 60v107q0 35 -24.5 58.5t-59.5 23.5h-260 q-35 0 -59.5 -23.5t-24.5 -58.5v-930z" />
<glyph unicode="I" horiz-adv-x="1576" d="M0 86v-5q0 -31 24 -53q26 -24 60 -24h1266q20 0 41 10q43 22 43 77q0 33 -24 55q-26 24 -60 24h-338q-35 0 -59.5 24.5t-24.5 59.5v512q0 35 24.5 58.5t59.5 23.5h291q20 0 40 12q41 20 43 74v5q0 31 -24 53q-26 24 -59 24h-1172q-20 0 -41 -10q-41 -20 -43 -74v-5 q-1 -33 23 -55q26 -24 61 -24h285q35 0 59.5 -23.5t24.5 -58.5v-512q0 -35 -24.5 -59.5t-59.5 -24.5h-332q-20 0 -41 -10q-41 -20 -43 -74z" />
<glyph unicode="J" horiz-adv-x="1470" d="M0 86v-5q0 -32 24 -53q25 -24 60 -24h215q233 0 464.5 141.5t323.5 352.5l234 536q6 10 6 21q0 45 -59 45h-326q-84 0 -113 -66l-288 -657q-39 -86 -137.5 -146.5t-194.5 -60.5h-125q-20 0 -41 -10q-41 -20 -43 -74z" />
<glyph unicode="K" horiz-adv-x="1667" d="M213 -78q0 -23 10 -41q23 -41 74 -43q35 0 59.5 24.5t24.5 59.5v1262q-2 23 -10 41q-23 39 -74 43h-5q-32 0 -54 -24q-24 -26 -25 -60v-1262zM541 -125q0 -20 10 -41q20 -41 74 -43h5q32 -1 54 23q24 26 23 61v455q0 73 73 73h2l154 -22q86 -12 146.5 -81t60.5 -155v-16 q0 -23 10 -41q23 -41 74 -43h5q32 -1 54 23q24 26 25 61v133q0 205 -148 367q-141 154 -346 196l-29 6q-82 18 -81 93v307q-6 78 -84 84h-5q-30 1 -52 -23q-24 -26 -25 -61v-1356zM893 1100q0 -51 35 -86t86 -35q49 0 85 36t36 85q0 51 -35 86t-86 35t-86 -35t-35 -86z" />
<glyph unicode="L" d="M0 299q0 -45 53 -45h262q84 0 121 74l205 413q41 84 133 145.5t182 61.5h115q78 6 82 84v5q-1 33 -23 55q-24 24 -59 24h-172q-213 0 -434 -151q-213 -145 -311 -342l-146 -295q-8 -16 -8 -29zM684 88q0 -35 23.5 -59.5t58.5 -24.5h696q35 0 59.5 24.5t24.5 59.5v47 q0 35 -24.5 59.5t-59.5 24.5h-696q-35 0 -58.5 -24.5t-23.5 -59.5v-47z" />
<glyph unicode="M" horiz-adv-x="1792" d="M0 88v-5q0 -33 24 -55q26 -24 60 -24q276 0 387 248q55 123 55 246v151q0 35 -23.5 59.5t-58.5 24.5h-198q-35 0 -59.5 -24.5t-24.5 -59.5v-270q0 -45 -10 -103q-18 -104 -68 -106q-27 0 -41 -10q-41 -20 -43 -72zM23 934v-5q-1 -33 23 -55q26 -24 60 -24h416 q35 0 59.5 -24.5t24.5 -59.5v-678q0 -35 24.5 -59.5t59.5 -24.5h260q35 0 59.5 24.5t24.5 59.5v678q0 35 24.5 59.5t59.5 24.5h418q78 6 82 84v5q0 31 -22 53q-24 24 -60 24h-418q-55 0 -83.5 47t-84.5 47h-260q-55 0 -83.5 -47t-84.5 -47h-416q-20 0 -40 -10 q-41 -20 -43 -72zM1114 498q0 -121 55 -246q111 -248 390 -248q82 8 83 84q0 33 -24 57.5t-59 24.5q-78 2 -78 209v270q0 35 -24.5 59.5t-59.5 24.5h-199q-35 0 -59.5 -24.5t-24.5 -59.5v-151zM1233 1300q0 -90 86 -147q76 -51 172 -51t172 49q88 57 88 149t-86 150 q-76 51 -174 51q-96 0 -172 -51q-86 -57 -86 -150zM1403 1300q0 37 25.5 66t62.5 29q39 0 64.5 -28t25.5 -67t-25.5 -66.5t-64.5 -27.5q-37 0 -62.5 29t-25.5 65z" />
<glyph unicode="N" horiz-adv-x="1746" d="M0 926v-5q0 -31 24 -53q26 -24 60 -24h131q31 0 53.5 -23.5t16.5 -54.5l-64 -385q-35 -209 -108 -209h-17q-20 0 -41 -10q-43 -20 -45 -72q0 -35 23.5 -59.5t58.5 -24.5q207 0 374 144.5t202 349.5l43 260q6 35 34.5 59.5t63.5 24.5h162q86 0 145.5 -61.5t59.5 -147.5 l-2 -256q0 -88 -60.5 -148.5t-146.5 -60.5h-62q-76 -6 -84 -82q0 -35 24.5 -59.5t59.5 -24.5h201q206 0 354 144q144 141 144 339v11l-2 18q-4 197 -129 342q-133 152 -326 152h-316q-53 0 -70.5 50t-74.5 50h-262q-53 0 -90 -50t-88 -50h-162q-20 0 -41 -11 q-41 -20 -43 -73z" />
<glyph unicode="O" d="M0 498q0 -207 144.5 -350.5t351.5 -143.5h555q207 0 351 143.5t144 350.5v123q0 205 -145 348t-350 143h-555q-205 0 -350.5 -143.5t-145.5 -347.5v-123zM428 377v362q0 86 61.5 146.5t147.5 60.5h272q86 0 147.5 -60.5t61.5 -146.5v-362q0 -86 -61.5 -146.5 t-147.5 -60.5h-272q-86 0 -147.5 60.5t-61.5 146.5z" />
<glyph unicode="P" horiz-adv-x="1744" d="M0 1016q0 -35 24.5 -59.5t59.5 -24.5h969q131 0 131 -123q0 -86 -51 -186q-76 -150 -211 -189q4 35 4 64v186q0 33 -24.5 57.5t-57.5 24.5h-262q-35 0 -59.5 -23.5t-24.5 -58.5v-307q0 -86 -61.5 -146.5t-147.5 -60.5h-25q-82 0 -82 -84q0 -35 23.5 -58.5t58.5 -23.5h166 q135 0 251 68.5t183 185.5h74q506 49 627 348q37 92 37 170q0 150 -107 240q-98 84 -252 84h-1159q-20 0 -41 -10q-41 -20 -43 -74z" />
<glyph unicode="Q" horiz-adv-x="1718" d="M0 530q2 -182 126 -303t308 -121h397q55 0 83 -51t83 -51h263q55 0 82.5 51t82.5 51h66q20 0 41 11q41 20 43 71v5q0 32 -23 55q-26 24 -61 24h-66q-35 0 -58.5 25t-23.5 59v262q0 207 -145 350.5t-352 143.5h-727q-23 0 -39 -10q-41 -20 -43 -72v-5q0 -32 23 -55 q24 -24 59 -24h588q86 0 147 -60.5t61 -146.5v-383q0 -35 -24.5 -59.5t-59.5 -24.5h-233q-76 0 -130 49.5t-54 124.5q0 16 2 29l33 211q6 35 -14.5 58.5t-55.5 23.5h-262q-82 0 -94 -82z" />
<glyph unicode="R" horiz-adv-x="1734" d="M0 926v5q0 31 22 53q24 24 60 24h33q55 0 82.5 51t83.5 51h262q55 0 82.5 -51t83.5 -51h798q20 0 41 -11q41 -20 43 -71v-5q1 -33 -23 -55q-26 -24 -61 -24h-817q-66 0 -65 -84v-672q0 -35 -23.5 -58.5t-58.5 -23.5h-262q-35 0 -59.5 23.5t-24.5 58.5v672 q0 35 -23.5 59.5t-58.5 24.5h-33q-78 6 -82 84zM674 723q0 53 57 53h268q80 0 107 -76l115 -321q29 -82 106.5 -144.5t161.5 -62.5h18q23 0 41 -10q41 -23 43 -74v-5q1 -33 -23 -55q-26 -24 -61 -24l-86 2q-209 4 -399 146q-201 145 -272 346l-72 202q-4 12 -4 23z" />
<glyph unicode="S" horiz-adv-x="1646" d="M0 694q4 84 84 84h1155q264 0 264 -225q0 -31 -4 -55q-51 -309 -385 -432q-167 -62 -323 -62h-314q-35 0 -59 24q-23 22 -23 53v5q4 84 82 84h314q154 0 237 115q59 80 59 153q0 76 -50 125t-126 49h-827q-34 0 -60 24q-24 22 -24 53v5zM0 1020v-5q0 -31 24 -53 q26 -24 60 -24h1335q80 8 84 82v5q1 33 -23 55q-26 24 -61 24h-1335q-20 0 -41 -10q-41 -20 -43 -74z" />
<glyph unicode="T" horiz-adv-x="1742" d="M0 784v-5q0 -33 24 -55q26 -24 60 -24h569q35 0 56.5 -24.5t17.5 -57.5l-33 -241q-12 -86 -80.5 -146.5t-156.5 -60.5h-133q-20 0 -41 -10q-41 -20 -43 -74q0 -33 25.5 -57.5t58.5 -24.5h251q207 0 371 143.5t193 350.5l16 120q4 35 31.5 58.5t62.5 23.5h267q76 6 83 84 q0 35 -24 58.5t-59 23.5h-246q-35 0 -55.5 24.5t-16.5 59.5l10 88q4 35 -16.5 58.5t-54.5 23.5h-263q-35 0 -62.5 -24.5t-31.5 -57.5l-10 -88q-4 -35 -31.5 -59.5t-62.5 -24.5h-592q-20 0 -41 -10q-41 -20 -43 -72z" />
<glyph unicode="U" horiz-adv-x="1636" d="M0 395q0 -170 137 -282q131 -109 303 -109h625q186 0 309 123q119 119 119 297v12l-27 219q-10 82 -92 82h-262q-35 0 -55.5 -23.5t-16.5 -58.5l37 -276q2 -16 2 -32q0 -65 -41 -115q-51 -62 -139 -62h-295q-74 0 -129 48t-55 122q0 20 4 39l149 641q4 33 -17 57.5 t-54 24.5h-262q-35 0 -62.5 -23.5t-32.5 -58.5l-137 -543h2q-10 -41 -10 -82z" />
<glyph unicode="V" horiz-adv-x="1742" d="M0 600v117q0 35 24.5 58.5t59.5 23.5h260q35 0 59.5 -23.5t24.5 -58.5v-238q0 -86 61.5 -146.5t147.5 -60.5h358q87 0 139 58q46 50 45 121q0 11 -1 22q-6 59 -39 266q-14 88 -81 147.5t-155 59.5h-155q-25 2 -41 10q-39 18 -41 74q0 35 23.5 58.5t58.5 23.5h272 q205 0 366 -147q154 -141 199 -347l4 -18q10 -45 10 -90q0 -174 -135 -291q-127 -113 -305 -113h-67q-37 0 -60.5 -51t-83.5 -51h-262q-59 0 -76 27l-12 49q-6 27 -41 26h-61q-207 0 -351.5 143.5t-144.5 350.5z" />
<glyph unicode="W" horiz-adv-x="1792" d="M6 1049v5q0 32 24 54q26 24 60 25q276 0 387 -248q55 -123 55 -246v-152q0 -35 -23 -59.5t-58 -24.5h-199q-35 0 -59.5 25t-24.5 59v271q0 45 -10 102q-18 104 -68 107q-27 0 -41 10q-41 20 -43 72zM29 203v5q-1 32 23 54q26 24 61 25h415q35 0 59.5 24.5t24.5 59.5v678 q0 35 25 59.5t59 24.5h260q35 0 59.5 -25t24.5 -59v-678q0 -35 25 -59.5t59 -24.5h418q78 -6 82 -84v-5q0 -32 -22 -54q-24 -24 -60 -23h-418q-55 0 -83.5 -47t-84.5 -47h-260q-55 0 -83.5 47t-84.5 47h-415q-20 0 -41 10q-41 20 -43 72zM1120 487v152q0 121 56 246 q111 248 389 248q82 -8 84 -84q0 -33 -24.5 -57.5t-59.5 -24.5q-78 -2 -78 -209v-271q0 -35 -24.5 -59.5t-59.5 -24.5h-199q-35 0 -59.5 25t-24.5 59zM1239 -164q0 90 86 148q76 51 172 51t172 -49q88 -57 88 -150q0 -92 -86 -149q-76 -52 -174 -52q-96 0 -172 52 q-86 57 -86 149zM1409 -164q0 -37 25.5 -65.5t62.5 -28.5q39 0 64.5 27.5t25.5 66.5t-25.5 66.5t-64.5 27.5q-37 0 -62.5 -28.5t-25.5 -65.5z" />
<glyph unicode="X" horiz-adv-x="1548" d="M0 182q0 19 20 39l232 240q33 35 33 86q0 25 -9 43l-192 444q-6 14 -6 23q0 45 59 45h326q84 0 112 -68l43 -100q18 -43 48 -43q10 0 18 6q76 51 125 51h225q59 0 60 -43q0 -20 -19 -39l-237 -243q-35 -35 -35 -86q0 -18 61 -158q39 -88 136.5 -148.5t195.5 -60.5h125 q20 0 41 -10q43 -20 43 -72q0 -35 -24.5 -59.5t-59.5 -24.5h-215q-303 0 -576 221q-20 16 -38 17q-25 0 -43 -21q-27 -31 -76 -56.5t-88 -25.5h-224q-61 0 -61 43z" />
<glyph unicode="Y" horiz-adv-x="1736" d="M0 563q0 -35 24.5 -59.5t59.5 -24.5h405q39 0 67 -26.5t28 -65.5v-301q0 -33 24.5 -57.5t57.5 -24.5h262q35 0 59.5 23.5t24.5 58.5v309q0 84 86 84q205 2 350 145.5t145 348.5v47q0 33 -23.5 56.5t-56.5 23.5h-268q-33 0 -56.5 -24.5t-23.5 -57.5v-164 q0 -86 -60.5 -146.5t-146.5 -60.5h-874q-20 0 -41 -10q-43 -23 -43 -74z" />
<glyph unicode="Z" horiz-adv-x="1591" d="M0 86v-5q0 -31 24 -53q26 -24 60 -24h127q264 0 598 223q14 10 39 11q33 0 55 -29l96 -121q68 -84 148 -84h260q41 0 41 33q-1 24 -21 51l-268 352q-18 25 -18 60q0 23 12 41l66 80q145 178 145 307q0 174 -234 174h-1046q-20 0 -41 -10q-41 -20 -43 -72v-5q0 -33 24 -55 q26 -24 60 -24h768q100 0 100 -70q0 -51 -57 -121l-305 -366q-66 -80 -172 -141q-117 -68 -209 -68h-125q-20 0 -41 -10q-41 -20 -43 -74z" />
<glyph unicode="a" horiz-adv-x="1728" d="M0 399q-4 -35 17.5 -58.5t56.5 -23.5h262q35 0 61.5 24t30.5 58l45 365q4 35 31.5 58.5t62.5 23.5h416q53 0 98 -29q82 -51 82 -136q0 -13 -2 -26q-8 -53 -88 -53h-444q-35 0 -58.5 -24.5t-23.5 -59.5t23.5 -58.5t58.5 -23.5h420q35 0 56 -24.5t17 -57.5 q-10 -80 -80.5 -131t-152.5 -51h-154q-35 0 -59.5 -24.5t-24.5 -59.5t24.5 -59.5t59.5 -24.5h273q197 0 362 152q162 145 201 342l4 20q10 51 10 88q0 176 -131 291t-309 115h-557q-55 0 -78 51t-78 51h-262q-35 0 -61.5 -24.5t-30.5 -59.5z" />
<glyph unicode="b" horiz-adv-x="1501" d="M0 80q-2 -33 22.5 -57.5t57.5 -24.5h797q199 0 340 140.5t141 338.5v119q0 199 -141 339t-340 140h-797q-76 -6 -80 -82q-2 -33 22.5 -56.5t57.5 -23.5h659q84 0 143.5 -58t59.5 -142v-6q0 -35 -22.5 -57.5t-57.5 -22.5h-782q-76 -6 -80 -82q-2 -33 22.5 -56.5 t57.5 -23.5h782q35 0 57.5 -23.5t22.5 -58.5v-23q0 -84 -59.5 -142t-143.5 -58h-659q-76 -8 -80 -80z" />
<glyph unicode="c" horiz-adv-x="1646" d="M0 80q0 33 24.5 56.5t57.5 23.5h108q35 0 57.5 23.5t22.5 58.5v354q0 199 141.5 339t340.5 140h622q78 -6 80 -82q0 -33 -23.5 -56.5t-56.5 -23.5h-485q-84 0 -143.5 -59t-59.5 -143v-469q0 -35 22.5 -58.5t57.5 -23.5h657q76 -6 80 -80q2 -33 -22.5 -57.5t-57.5 -24.5 h-1341q-80 8 -82 82z" />
<glyph unicode="d" horiz-adv-x="1718" d="M0 928v-5q0 -33 24 -55q26 -24 60 -24h66q35 0 58 -24.5t23 -59.5v-262q0 -207 145.5 -350.5t352.5 -143.5h727q23 0 39 10q41 20 43 72v5q0 33 -22 55q-24 24 -60 24h-588q-86 0 -147.5 60.5t-61.5 146.5v383q0 35 25 59.5t59 24.5h234q76 0 130 -49.5t54 -124.5 q0 -16 -2 -29l-33 -211q-6 -35 14.5 -58.5t55.5 -23.5h262q82 0 94 82l23 156q-2 182 -126 303t-308 121h-398q-55 0 -82.5 51t-82.5 51h-263q-55 0 -82.5 -51t-82.5 -51h-66q-20 0 -41 -11q-41 -20 -43 -71z" />
<glyph unicode="e" horiz-adv-x="1646" d="M0 420q0 -180 128 -298t308 -118h983q20 0 41 10q41 20 43 74v5q1 31 -23 53q-26 24 -61 24l-841 2q-78 8 -122 68q-36 48 -36 109q0 14 2 28q6 41 88 41h907q25 2 41 10q39 18 41 74q0 33 -24.5 57.5t-57.5 24.5h-885q-72 0 -72 63q0 7 1 15q2 20 8 63q12 86 82 146.5 t156 60.5h399q23 2 41 10q39 23 41 74v5q0 33 -22 55q-24 24 -60 24h-516q-199 0 -366 -148.5t-199 -345.5l-19 -108q-6 -37 -6 -78z" />
<glyph unicode="f" d="M0 821q0 43 53 43h262q84 0 121 -73l205 -414q41 -84 132 -145.5t181 -61.5h117q78 -6 82 -84v-5q0 -32 -23 -53q-24 -24 -59 -24h-172q-215 0 -431 147.5t-314 346.5l-146 293q-8 16 -8 30zM682 969v49q0 35 24.5 58.5t59.5 23.5h696q35 0 59.5 -23.5t24.5 -58.5v-49 q0 -35 -24.5 -58.5t-59.5 -23.5h-696q-35 0 -59.5 23.5t-24.5 58.5zM684 614v48q0 35 23.5 59t58.5 24h696q35 0 59.5 -24.5t24.5 -58.5v-48q0 -35 -24.5 -59.5t-59.5 -24.5h-696q-35 0 -58.5 24.5t-23.5 59.5z" />
<glyph unicode="g" horiz-adv-x="1728" d="M0 510q0 -176 131 -291t309 -115h557q55 0 78 -50t78 -50h262q82 0 92 82l78 631q4 35 -17.5 58.5t-56.5 23.5h-262q-82 0 -92 -82l-45 -363q-4 -35 -31.5 -58.5t-62.5 -23.5h-416q-84 0 -137 58q-45 50 -45 117q0 13 2 26q10 80 37 264q12 86 81.5 147.5t155.5 61.5h154 q20 0 41 10q41 20 43 72q0 35 -24.5 59.5t-59.5 24.5h-272q-197 0 -361 -148.5t-203 -345.5l-4 -20q-10 -51 -10 -88z" />
<glyph unicode="h" horiz-adv-x="1527" d="M0 88q0 -35 24.5 -59.5t59.5 -24.5h260q35 0 59.5 24.5t24.5 59.5v485q0 84 84 84h236q86 0 147 -60t61 -146v-127q0 -33 24 -57.5t56 -24.5h269q33 0 56 23.5t23 56.5v10q0 205 -144 347t-351 144l-377 2q-35 0 -59.5 26t-24.5 60v107q0 35 -24.5 58.5t-59.5 23.5h-260 q-35 0 -59.5 -23.5t-24.5 -58.5v-930z" />
<glyph unicode="i" horiz-adv-x="1576" d="M0 86v-5q0 -31 24 -53q26 -24 60 -24h1266q20 0 41 10q43 22 43 77q0 33 -24 55q-26 24 -60 24h-338q-35 0 -59.5 24.5t-24.5 59.5v512q0 35 24.5 58.5t59.5 23.5h291q20 0 40 12q41 20 43 74v5q0 31 -24 53q-26 24 -59 24h-1172q-20 0 -41 -10q-41 -20 -43 -74v-5 q-1 -33 23 -55q26 -24 61 -24h285q35 0 59.5 -23.5t24.5 -58.5v-512q0 -35 -24.5 -59.5t-59.5 -24.5h-332q-20 0 -41 -10q-41 -20 -43 -74z" />
<glyph unicode="j" horiz-adv-x="1470" d="M0 86v-5q0 -32 24 -53q25 -24 60 -24h215q233 0 464.5 141.5t323.5 352.5l234 536q6 10 6 21q0 45 -59 45h-326q-84 0 -113 -66l-288 -657q-39 -86 -137.5 -146.5t-194.5 -60.5h-125q-20 0 -41 -10q-41 -20 -43 -74z" />
<glyph unicode="k" horiz-adv-x="1667" d="M213 -78q0 -23 10 -41q23 -41 74 -43q35 0 59.5 24.5t24.5 59.5v1262q-2 23 -10 41q-23 39 -74 43h-5q-32 0 -54 -24q-24 -26 -25 -60v-1262zM541 -125q0 -20 10 -41q20 -41 74 -43h5q32 -1 54 23q24 26 23 61v455q0 73 73 73h2l154 -22q86 -12 146.5 -81t60.5 -155v-16 q0 -23 10 -41q23 -41 74 -43h5q32 -1 54 23q24 26 25 61v133q0 205 -148 367q-141 154 -346 196l-29 6q-82 18 -81 93v307q-6 78 -84 84h-5q-30 1 -52 -23q-24 -26 -25 -61v-1356zM893 1100q0 -51 35 -86t86 -35q49 0 85 36t36 85q0 51 -35 86t-86 35t-86 -35t-35 -86z" />
<glyph unicode="l" d="M0 299q0 -45 53 -45h262q84 0 121 74l205 413q41 84 133 145.5t182 61.5h115q78 6 82 84v5q-1 33 -23 55q-24 24 -59 24h-172q-213 0 -434 -151q-213 -145 -311 -342l-146 -295q-8 -16 -8 -29zM684 88q0 -35 23.5 -59.5t58.5 -24.5h696q35 0 59.5 24.5t24.5 59.5v47 q0 35 -24.5 59.5t-59.5 24.5h-696q-35 0 -58.5 -24.5t-23.5 -59.5v-47z" />
<glyph unicode="m" horiz-adv-x="1792" d="M0 88v-5q0 -33 24 -55q26 -24 60 -24q276 0 387 248q55 123 55 246v151q0 35 -23.5 59.5t-58.5 24.5h-198q-35 0 -59.5 -24.5t-24.5 -59.5v-270q0 -45 -10 -103q-18 -104 -68 -106q-27 0 -41 -10q-41 -20 -43 -72zM23 934v-5q-1 -33 23 -55q26 -24 60 -24h416 q35 0 59.5 -24.5t24.5 -59.5v-678q0 -35 24.5 -59.5t59.5 -24.5h260q35 0 59.5 24.5t24.5 59.5v678q0 35 24.5 59.5t59.5 24.5h418q78 6 82 84v5q0 31 -22 53q-24 24 -60 24h-418q-55 0 -83.5 47t-84.5 47h-260q-55 0 -83.5 -47t-84.5 -47h-416q-20 0 -40 -10 q-41 -20 -43 -72zM1114 498q0 -121 55 -246q111 -248 390 -248q82 8 83 84q0 33 -24 57.5t-59 24.5q-78 2 -78 209v270q0 35 -24.5 59.5t-59.5 24.5h-199q-35 0 -59.5 -24.5t-24.5 -59.5v-151zM1233 1300q0 -90 86 -147q76 -51 172 -51t172 49q88 57 88 149t-86 150 q-76 51 -174 51q-96 0 -172 -51q-86 -57 -86 -150zM1403 1300q0 37 25.5 66t62.5 29q39 0 64.5 -28t25.5 -67t-25.5 -66.5t-64.5 -27.5q-37 0 -62.5 29t-25.5 65z" />
<glyph unicode="n" horiz-adv-x="1746" d="M0 926v-5q0 -31 24 -53q26 -24 60 -24h131q31 0 53.5 -23.5t16.5 -54.5l-64 -385q-35 -209 -108 -209h-17q-20 0 -41 -10q-43 -20 -45 -72q0 -35 23.5 -59.5t58.5 -24.5q207 0 374 144.5t202 349.5l43 260q6 35 34.5 59.5t63.5 24.5h162q86 0 145.5 -61.5t59.5 -147.5 l-2 -256q0 -88 -60.5 -148.5t-146.5 -60.5h-62q-76 -6 -84 -82q0 -35 24.5 -59.5t59.5 -24.5h201q206 0 354 144q144 141 144 339v11l-2 18q-4 197 -129 342q-133 152 -326 152h-316q-53 0 -70.5 50t-74.5 50h-262q-53 0 -90 -50t-88 -50h-162q-20 0 -41 -11 q-41 -20 -43 -73z" />
<glyph unicode="o" d="M0 498q0 -207 144.5 -350.5t351.5 -143.5h555q207 0 351 143.5t144 350.5v123q0 205 -145 348t-350 143h-555q-205 0 -350.5 -143.5t-145.5 -347.5v-123zM428 377v362q0 86 61.5 146.5t147.5 60.5h272q86 0 147.5 -60.5t61.5 -146.5v-362q0 -86 -61.5 -146.5 t-147.5 -60.5h-272q-86 0 -147.5 60.5t-61.5 146.5z" />
<glyph unicode="p" horiz-adv-x="1744" d="M0 1016q0 -35 24.5 -59.5t59.5 -24.5h969q131 0 131 -123q0 -86 -51 -186q-76 -150 -211 -189q4 35 4 64v186q0 33 -24.5 57.5t-57.5 24.5h-262q-35 0 -59.5 -23.5t-24.5 -58.5v-307q0 -86 -61.5 -146.5t-147.5 -60.5h-25q-82 0 -82 -84q0 -35 23.5 -58.5t58.5 -23.5h166 q135 0 251 68.5t183 185.5h74q506 49 627 348q37 92 37 170q0 150 -107 240q-98 84 -252 84h-1159q-20 0 -41 -10q-41 -20 -43 -74z" />
<glyph unicode="q" horiz-adv-x="1718" d="M0 530q2 -182 126 -303t308 -121h397q55 0 83 -51t83 -51h263q55 0 82.5 51t82.5 51h66q20 0 41 11q41 20 43 71v5q0 32 -23 55q-26 24 -61 24h-66q-35 0 -58.5 25t-23.5 59v262q0 207 -145 350.5t-352 143.5h-727q-23 0 -39 -10q-41 -20 -43 -72v-5q0 -32 23 -55 q24 -24 59 -24h588q86 0 147 -60.5t61 -146.5v-383q0 -35 -24.5 -59.5t-59.5 -24.5h-233q-76 0 -130 49.5t-54 124.5q0 16 2 29l33 211q6 35 -14.5 58.5t-55.5 23.5h-262q-82 0 -94 -82z" />
<glyph unicode="r" horiz-adv-x="1734" d="M0 926v5q0 31 22 53q24 24 60 24h33q55 0 82.5 51t83.5 51h262q55 0 82.5 -51t83.5 -51h798q20 0 41 -11q41 -20 43 -71v-5q1 -33 -23 -55q-26 -24 -61 -24h-817q-66 0 -65 -84v-672q0 -35 -23.5 -58.5t-58.5 -23.5h-262q-35 0 -59.5 23.5t-24.5 58.5v672 q0 35 -23.5 59.5t-58.5 24.5h-33q-78 6 -82 84zM674 723q0 53 57 53h268q80 0 107 -76l115 -321q29 -82 106.5 -144.5t161.5 -62.5h18q23 0 41 -10q41 -23 43 -74v-5q1 -33 -23 -55q-26 -24 -61 -24l-86 2q-209 4 -399 146q-201 145 -272 346l-72 202q-4 12 -4 23z" />
<glyph unicode="s" horiz-adv-x="1646" d="M0 694q4 84 84 84h1155q264 0 264 -225q0 -31 -4 -55q-51 -309 -385 -432q-167 -62 -323 -62h-314q-35 0 -59 24q-23 22 -23 53v5q4 84 82 84h314q154 0 237 115q59 80 59 153q0 76 -50 125t-126 49h-827q-34 0 -60 24q-24 22 -24 53v5zM0 1020v-5q0 -31 24 -53 q26 -24 60 -24h1335q80 8 84 82v5q1 33 -23 55q-26 24 -61 24h-1335q-20 0 -41 -10q-41 -20 -43 -74z" />
<glyph unicode="t" horiz-adv-x="1742" d="M0 784v-5q0 -33 24 -55q26 -24 60 -24h569q35 0 56.5 -24.5t17.5 -57.5l-33 -241q-12 -86 -80.5 -146.5t-156.5 -60.5h-133q-20 0 -41 -10q-41 -20 -43 -74q0 -33 25.5 -57.5t58.5 -24.5h251q207 0 371 143.5t193 350.5l16 120q4 35 31.5 58.5t62.5 23.5h267q76 6 83 84 q0 35 -24 58.5t-59 23.5h-246q-35 0 -55.5 24.5t-16.5 59.5l10 88q4 35 -16.5 58.5t-54.5 23.5h-263q-35 0 -62.5 -24.5t-31.5 -57.5l-10 -88q-4 -35 -31.5 -59.5t-62.5 -24.5h-592q-20 0 -41 -10q-41 -20 -43 -72z" />
<glyph unicode="u" horiz-adv-x="1636" d="M0 395q0 -170 137 -282q131 -109 303 -109h625q186 0 309 123q119 119 119 297v12l-27 219q-10 82 -92 82h-262q-35 0 -55.5 -23.5t-16.5 -58.5l37 -276q2 -16 2 -32q0 -65 -41 -115q-51 -62 -139 -62h-295q-74 0 -129 48t-55 122q0 20 4 39l149 641q4 33 -17 57.5 t-54 24.5h-262q-35 0 -62.5 -23.5t-32.5 -58.5l-137 -543h2q-10 -41 -10 -82z" />
<glyph unicode="v" horiz-adv-x="1742" d="M0 600v117q0 35 24.5 58.5t59.5 23.5h260q35 0 59.5 -23.5t24.5 -58.5v-238q0 -86 61.5 -146.5t147.5 -60.5h358q87 0 139 58q46 50 45 121q0 11 -1 22q-6 59 -39 266q-14 88 -81 147.5t-155 59.5h-155q-25 2 -41 10q-39 18 -41 74q0 35 23.5 58.5t58.5 23.5h272 q205 0 366 -147q154 -141 199 -347l4 -18q10 -47 10 -90q0 -174 -135 -291q-127 -113 -305 -113h-67q-37 0 -60.5 -51t-83.5 -51h-262q-59 0 -76 27l-12 49q-6 27 -41 26h-61q-207 0 -351.5 143.5t-144.5 350.5z" />
<glyph unicode="w" horiz-adv-x="1792" d="M6 1049v5q0 32 24 54q26 24 60 25q276 0 387 -248q55 -123 55 -246v-152q0 -35 -23 -59.5t-58 -24.5h-199q-35 0 -59.5 25t-24.5 59v271q0 45 -10 102q-18 104 -68 107q-27 0 -41 10q-41 20 -43 72zM29 203v5q-1 32 23 54q26 24 61 25h415q35 0 59.5 24.5t24.5 59.5v678 q0 35 25 59.5t59 24.5h260q35 0 59.5 -25t24.5 -59v-678q0 -35 25 -59.5t59 -24.5h418q78 -6 82 -84v-5q0 -32 -22 -54q-24 -24 -60 -23h-418q-55 0 -83.5 -47t-84.5 -47h-260q-55 0 -83.5 47t-84.5 47h-415q-20 0 -41 10q-41 20 -43 72zM1120 487v152q0 121 56 246 q111 248 389 248q82 -8 84 -84q0 -33 -24.5 -57.5t-59.5 -24.5q-78 -2 -78 -209v-271q0 -35 -24.5 -59.5t-59.5 -24.5h-199q-35 0 -59.5 25t-24.5 59zM1239 -164q0 90 86 148q76 51 172 51t172 -49q88 -57 88 -150q0 -92 -86 -149q-76 -52 -174 -52q-96 0 -172 52 q-86 57 -86 149zM1409 -164q0 -37 25.5 -65.5t62.5 -28.5q39 0 64.5 27.5t25.5 66.5t-25.5 66.5t-64.5 27.5q-37 0 -62.5 -28.5t-25.5 -65.5z" />
<glyph unicode="x" horiz-adv-x="1548" d="M0 182q0 19 20 39l232 240q33 35 33 86q0 25 -9 43l-192 444q-6 14 -6 23q0 45 59 45h326q84 0 112 -68l43 -100q18 -43 48 -43q10 0 18 6q78 51 125 51h225q59 0 60 -43q0 -20 -19 -39l-237 -243q-35 -35 -35 -86q0 -18 61 -158q39 -88 136.5 -148.5t195.5 -60.5h125 q20 0 41 -10q43 -20 43 -72q0 -35 -24.5 -59.5t-59.5 -24.5h-215q-303 0 -576 221q-20 16 -38 17q-25 0 -43 -21q-27 -31 -76 -56.5t-88 -25.5h-224q-61 0 -61 43z" />
<glyph unicode="y" horiz-adv-x="1736" d="M0 563q0 -35 24.5 -59.5t59.5 -24.5h405q39 0 67 -26.5t28 -65.5v-301q0 -33 24.5 -57.5t57.5 -24.5h262q35 0 59.5 23.5t24.5 58.5v309q0 84 86 84q205 2 350 145.5t145 348.5v47q0 33 -23.5 56.5t-56.5 23.5h-268q-33 0 -56.5 -24.5t-23.5 -57.5v-164 q0 -86 -60.5 -146.5t-146.5 -60.5h-874q-20 0 -41 -10q-43 -23 -43 -74z" />
<glyph unicode="z" horiz-adv-x="1591" d="M0 86v-5q0 -31 24 -53q26 -24 60 -24h127q264 0 598 223q14 10 39 11q33 0 55 -29l96 -121q68 -84 148 -84h260q41 0 41 33q-1 24 -21 51l-268 352q-18 25 -18 60q0 23 12 41l66 80q145 178 145 307q0 174 -234 174h-1046q-20 0 -41 -10q-41 -20 -43 -72v-5q0 -33 24 -55 q26 -24 60 -24h768q100 0 100 -70q0 -51 -57 -121l-305 -366q-66 -80 -172 -141q-117 -68 -209 -68h-125q-20 0 -41 -10q-41 -20 -43 -74z" />
<glyph unicode="&#x2000;" horiz-adv-x="750" />
<glyph unicode="&#x2001;" horiz-adv-x="1501" />
<glyph unicode="&#x2002;" horiz-adv-x="750" />
<glyph unicode="&#x2003;" horiz-adv-x="1501" />
<glyph unicode="&#x2004;" horiz-adv-x="500" />
<glyph unicode="&#x2005;" horiz-adv-x="375" />
<glyph unicode="&#x2006;" horiz-adv-x="250" />
<glyph unicode="&#x2007;" horiz-adv-x="250" />
<glyph unicode="&#x2008;" horiz-adv-x="187" />
<glyph unicode="&#x2009;" horiz-adv-x="300" />
<glyph unicode="&#x200a;" horiz-adv-x="83" />
<glyph unicode="&#x202f;" horiz-adv-x="300" />
<glyph unicode="&#x205f;" horiz-adv-x="375" />
<glyph unicode="&#x25fc;" horiz-adv-x="1105" d="M0 0v1106h1106v-1106h-1106z" />
</font>
</defs>
</svg>
